<?xml version="1.0" encoding="us-ascii" standalone="no"?><svg xmlns="http://www.w3.org/2000/svg" xmlns:xlink="http://www.w3.org/1999/xlink" contentStyleType="text/css" height="769px" preserveAspectRatio="none" style="width:811px;height:769px;background:#FFFFFF;" version="1.1" viewBox="0 0 811 769" width="811px" zoomAndPan="magnify"><defs/><g><text fill="#000000" font-family="sans-serif" font-size="14" font-weight="bold" lengthAdjust="spacing" textLength="176" x="313.5" y="28.5352">Agentic ATAM Workflow</text><rect fill="#F9F9F9" height="720.1875" style="stroke:#181818;stroke-width:0.5;" width="134" x="11" y="43.4883"/><text fill="#000000" font-family="sans-serif" font-size="13" font-weight="bold" lengthAdjust="spacing" textLength="86" x="35" y="56.0566">Orchestrator</text><rect fill="#E6F3FF" height="720.1875" style="stroke:#181818;stroke-width:0.5;" width="521.5" x="271.5" y="43.4883"/><text fill="#000000" font-family="sans-serif" font-size="13" font-weight="bold" lengthAdjust="spacing" textLength="48" x="508.25" y="56.0566">Agents</text><rect fill="#FFFFFF" height="87.9316" style="stroke:#181818;stroke-width:1.0;" width="10" x="308" y="168.9082"/><rect fill="#FFFFFF" height="29.3105" style="stroke:#181818;stroke-width:1.0;" width="10" x="308" y="383.082"/><rect fill="#FFFFFF" height="29.3105" style="stroke:#181818;stroke-width:1.0;" width="10" x="308" y="652.5664"/><rect fill="#FFFFFF" height="119.2422" style="stroke:#181818;stroke-width:1.0;" width="10" x="519" y="329.4609"/><rect fill="#FFFFFF" height="29.3105" style="stroke:#181818;stroke-width:1.0;" width="10" x="519" y="521.3242"/><rect fill="#FFFFFF" height="87.9316" style="stroke:#181818;stroke-width:1.0;" width="10" x="629.5" y="623.2559"/><rect fill="#FFFFFF" height="29.3105" style="stroke:#181818;stroke-width:1.0;" width="10" x="743.5" y="198.2188"/><rect fill="none" height="75.9316" style="stroke:#000000;stroke-width:1.5;" width="305.5" x="265.5" y="344.4609"/><line style="stroke:#181818;stroke-width:0.5;stroke-dasharray:5.0,5.0;" x1="78" x2="78" y1="94.2871" y2="729.1875"/><line style="stroke:#181818;stroke-width:0.5;stroke-dasharray:5.0,5.0;" x1="312.5" x2="312.5" y1="94.2871" y2="729.1875"/><line style="stroke:#181818;stroke-width:0.5;stroke-dasharray:5.0,5.0;" x1="524" x2="524" y1="94.2871" y2="729.1875"/><line style="stroke:#181818;stroke-width:0.5;stroke-dasharray:5.0,5.0;" x1="634" x2="634" y1="94.2871" y2="729.1875"/><line style="stroke:#181818;stroke-width:0.5;stroke-dasharray:5.0,5.0;" x1="748" x2="748" y1="94.2871" y2="729.1875"/><rect fill="#E2E2F0" height="30.4883" rx="2.5" ry="2.5" style="stroke:#181818;stroke-width:0.5;" width="126" x="15" y="62.7988"/><text fill="#000000" font-family="sans-serif" font-size="14" lengthAdjust="spacing" textLength="112" x="22" y="83.334">EvaluationAgent</text><rect fill="#E2E2F0" height="30.4883" rx="2.5" ry="2.5" style="stroke:#181818;stroke-width:0.5;" width="126" x="15" y="728.1875"/><text fill="#000000" font-family="sans-serif" font-size="14" lengthAdjust="spacing" textLength="112" x="22" y="748.7227">EvaluationAgent</text><rect fill="#E2E2F0" height="30.4883" rx="2.5" ry="2.5" style="stroke:#181818;stroke-width:0.5;" width="75" x="275.5" y="62.7988"/><text fill="#000000" font-family="sans-serif" font-size="14" lengthAdjust="spacing" textLength="61" x="282.5" y="83.334">Architect</text><rect fill="#E2E2F0" height="30.4883" rx="2.5" ry="2.5" style="stroke:#181818;stroke-width:0.5;" width="75" x="275.5" y="728.1875"/><text fill="#000000" font-family="sans-serif" font-size="14" lengthAdjust="spacing" textLength="61" x="282.5" y="748.7227">Architect</text><rect fill="#E2E2F0" height="30.4883" rx="2.5" ry="2.5" style="stroke:#181818;stroke-width:0.5;" width="74" x="487" y="62.7988"/><text fill="#000000" font-family="sans-serif" font-size="14" lengthAdjust="spacing" textLength="60" x="494" y="83.334">Manager</text><rect fill="#E2E2F0" height="30.4883" rx="2.5" ry="2.5" style="stroke:#181818;stroke-width:0.5;" width="74" x="487" y="728.1875"/><text fill="#000000" font-family="sans-serif" font-size="14" lengthAdjust="spacing" textLength="60" x="494" y="748.7227">Manager</text><rect fill="#E2E2F0" height="30.4883" rx="2.5" ry="2.5" style="stroke:#181818;stroke-width:0.5;" width="127" x="571" y="62.7988"/><text fill="#000000" font-family="sans-serif" font-size="14" lengthAdjust="spacing" textLength="113" x="578" y="83.334">Evaluation Team</text><rect fill="#E2E2F0" height="30.4883" rx="2.5" ry="2.5" style="stroke:#181818;stroke-width:0.5;" width="127" x="571" y="728.1875"/><text fill="#000000" font-family="sans-serif" font-size="14" lengthAdjust="spacing" textLength="113" x="578" y="748.7227">Evaluation Team</text><rect fill="#E2E2F0" height="30.4883" rx="2.5" ry="2.5" style="stroke:#181818;stroke-width:0.5;" width="81" x="708" y="62.7988"/><text fill="#000000" font-family="sans-serif" font-size="14" lengthAdjust="spacing" textLength="67" x="715" y="83.334">Customer</text><rect fill="#E2E2F0" height="30.4883" rx="2.5" ry="2.5" style="stroke:#181818;stroke-width:0.5;" width="81" x="708" y="728.1875"/><text fill="#000000" font-family="sans-serif" font-size="14" lengthAdjust="spacing" textLength="67" x="715" y="748.7227">Customer</text><rect fill="#FFFFFF" height="87.9316" style="stroke:#181818;stroke-width:1.0;" width="10" x="308" y="168.9082"/><rect fill="#FFFFFF" height="29.3105" style="stroke:#181818;stroke-width:1.0;" width="10" x="308" y="383.082"/><rect fill="#FFFFFF" height="29.3105" style="stroke:#181818;stroke-width:1.0;" width="10" x="308" y="652.5664"/><rect fill="#FFFFFF" height="119.2422" style="stroke:#181818;stroke-width:1.0;" width="10" x="519" y="329.4609"/><rect fill="#FFFFFF" height="29.3105" style="stroke:#181818;stroke-width:1.0;" width="10" x="519" y="521.3242"/><rect fill="#FFFFFF" height="87.9316" style="stroke:#181818;stroke-width:1.0;" width="10" x="629.5" y="623.2559"/><rect fill="#FFFFFF" height="29.3105" style="stroke:#181818;stroke-width:1.0;" width="10" x="743.5" y="198.2188"/><rect fill="#EEEEEE" height="3" style="stroke:#EEEEEE;stroke-width:1.0;" width="804" x="0" y="124.9424"/><line style="stroke:#000000;stroke-width:1.0;" x1="0" x2="804" y1="124.9424" y2="124.9424"/><line style="stroke:#000000;stroke-width:1.0;" x1="0" x2="804" y1="127.9424" y2="127.9424"/><rect fill="#EEEEEE" height="23.3105" style="stroke:#000000;stroke-width:2.0;" width="234" x="285" y="114.2871"/><text fill="#000000" font-family="sans-serif" font-size="13" font-weight="bold" lengthAdjust="spacing" textLength="216" x="291" y="130.8555">Phase 1: Architecture Extraction</text><polygon fill="#181818" points="296,164.9082,306,168.9082,296,172.9082,300,168.9082" style="stroke:#181818;stroke-width:1.0;"/><line style="stroke:#181818;stroke-width:1.0;" x1="78" x2="302" y1="168.9082" y2="168.9082"/><text fill="#000000" font-family="sans-serif" font-size="13" lengthAdjust="spacing" textLength="211" x="87.5" y="164.166">Identify Architectural Approaches</text><polygon fill="#181818" points="731.5,194.2188,741.5,198.2188,731.5,202.2188,735.5,198.2188" style="stroke:#181818;stroke-width:1.0;"/><line style="stroke:#181818;stroke-width:1.0;" x1="318" x2="737.5" y1="198.2188" y2="198.2188"/><text fill="#000000" font-family="sans-serif" font-size="13" lengthAdjust="spacing" textLength="227" x="417.25" y="193.4766">Request System Constraints/Details</text><polygon fill="#181818" points="329,223.5293,319,227.5293,329,231.5293,325,227.5293" style="stroke:#181818;stroke-width:1.0;"/><line style="stroke:#181818;stroke-width:1.0;stroke-dasharray:2.0,2.0;" x1="323" x2="747.5" y1="227.5293" y2="227.5293"/><text fill="#000000" font-family="sans-serif" font-size="13" lengthAdjust="spacing" textLength="155" x="455.75" y="222.7871">System Description Data</text><polygon fill="#181818" points="89,252.8398,79,256.8398,89,260.8398,85,256.8398" style="stroke:#181818;stroke-width:1.0;"/><line style="stroke:#181818;stroke-width:1.0;stroke-dasharray:2.0,2.0;" x1="83" x2="312" y1="256.8398" y2="256.8398"/><text fill="#000000" font-family="sans-serif" font-size="13" lengthAdjust="spacing" textLength="202" x="94.5" y="252.0977">Architectural Approaches (JSON)</text><rect fill="#EEEEEE" height="3" style="stroke:#EEEEEE;stroke-width:1.0;" width="804" x="0" y="285.4951"/><line style="stroke:#000000;stroke-width:1.0;" x1="0" x2="804" y1="285.4951" y2="285.4951"/><line style="stroke:#000000;stroke-width:1.0;" x1="0" x2="804" y1="288.4951" y2="288.4951"/><rect fill="#EEEEEE" height="23.3105" style="stroke:#000000;stroke-width:2.0;" width="232" x="286" y="274.8398"/><text fill="#000000" font-family="sans-serif" font-size="13" font-weight="bold" lengthAdjust="spacing" textLength="214" x="292" y="291.4082">Phase 2: Utility Tree Generation</text><polygon fill="#181818" points="507,325.4609,517,329.4609,507,333.4609,511,329.4609" style="stroke:#181818;stroke-width:1.0;"/><line style="stroke:#181818;stroke-width:1.0;" x1="78" x2="513" y1="329.4609" y2="329.4609"/><text fill="#000000" font-family="sans-serif" font-size="13" lengthAdjust="spacing" textLength="128" x="234.5" y="324.7188">Generate Utility Tree</text><path d="M265.5,344.4609 L473.5,344.4609 L473.5,351.7715 L463.5,361.7715 L265.5,361.7715 L265.5,344.4609 " fill="#EEEEEE" style="stroke:#000000;stroke-width:1.5;"/><rect fill="none" height="75.9316" style="stroke:#000000;stroke-width:1.5;" width="305.5" x="265.5" y="344.4609"/><text fill="#000000" font-family="sans-serif" font-size="13" font-weight="bold" lengthAdjust="spacing" textLength="163" x="280.5" y="358.0293">Internal Review Protocol</text><polygon fill="#181818" points="329,379.082,319,383.082,329,387.082,325,383.082" style="stroke:#181818;stroke-width:1.0;"/><line style="stroke:#181818;stroke-width:1.0;" x1="323" x2="518" y1="383.082" y2="383.082"/><text fill="#000000" font-family="sans-serif" font-size="13" lengthAdjust="spacing" textLength="182" x="327.5" y="378.3398">Validate Technical Feasibility</text><polygon fill="#181818" points="507,408.3926,517,412.3926,507,416.3926,511,412.3926" style="stroke:#181818;stroke-width:1.0;"/><line style="stroke:#181818;stroke-width:1.0;stroke-dasharray:2.0,2.0;" x1="313" x2="513" y1="412.3926" y2="412.3926"/><text fill="#000000" font-family="sans-serif" font-size="13" lengthAdjust="spacing" textLength="127" x="352.5" y="407.6504">Approval or Critique</text><polygon fill="#181818" points="89,444.7031,79,448.7031,89,452.7031,85,448.7031" style="stroke:#181818;stroke-width:1.0;"/><line style="stroke:#181818;stroke-width:1.0;stroke-dasharray:2.0,2.0;" x1="83" x2="523" y1="448.7031" y2="448.7031"/><text fill="#000000" font-family="sans-serif" font-size="13" lengthAdjust="spacing" textLength="112" x="245" y="443.9609">Utility Tree (JSON)</text><rect fill="#EEEEEE" height="3" style="stroke:#EEEEEE;stroke-width:1.0;" width="804" x="0" y="477.3584"/><line style="stroke:#000000;stroke-width:1.0;" x1="0" x2="804" y1="477.3584" y2="477.3584"/><line style="stroke:#000000;stroke-width:1.0;" x1="0" x2="804" y1="480.3584" y2="480.3584"/><rect fill="#EEEEEE" height="23.3105" style="stroke:#000000;stroke-width:2.0;" width="214" x="295" y="466.7031"/><text fill="#000000" font-family="sans-serif" font-size="13" font-weight="bold" lengthAdjust="spacing" textLength="196" x="301" y="483.2715">Phase 3: Scenario Generation</text><polygon fill="#181818" points="507,517.3242,517,521.3242,507,525.3242,511,521.3242" style="stroke:#181818;stroke-width:1.0;"/><line style="stroke:#181818;stroke-width:1.0;" x1="78" x2="513" y1="521.3242" y2="521.3242"/><text fill="#000000" font-family="sans-serif" font-size="13" lengthAdjust="spacing" textLength="192" x="202.5" y="516.582">Generate &amp; Prioritize Scenarios</text><polygon fill="#181818" points="89,546.6348,79,550.6348,89,554.6348,85,550.6348" style="stroke:#181818;stroke-width:1.0;"/><line style="stroke:#181818;stroke-width:1.0;stroke-dasharray:2.0,2.0;" x1="83" x2="523" y1="550.6348" y2="550.6348"/><text fill="#000000" font-family="sans-serif" font-size="13" lengthAdjust="spacing" textLength="103" x="249.5" y="545.8926">Scenarios (JSON)</text><rect fill="#EEEEEE" height="3" style="stroke:#EEEEEE;stroke-width:1.0;" width="804" x="0" y="579.29"/><line style="stroke:#000000;stroke-width:1.0;" x1="0" x2="804" y1="579.29" y2="579.29"/><line style="stroke:#000000;stroke-width:1.0;" x1="0" x2="804" y1="582.29" y2="582.29"/><rect fill="#EEEEEE" height="23.3105" style="stroke:#000000;stroke-width:2.0;" width="266" x="269" y="568.6348"/><text fill="#000000" font-family="sans-serif" font-size="13" font-weight="bold" lengthAdjust="spacing" textLength="248" x="275" y="585.2031">Phase 4: Analysis &amp; Risk Assessment</text><polygon fill="#181818" points="617.5,619.2559,627.5,623.2559,617.5,627.2559,621.5,623.2559" style="stroke:#181818;stroke-width:1.0;"/><line style="stroke:#181818;stroke-width:1.0;" x1="78" x2="623.5" y1="623.2559" y2="623.2559"/><text fill="#000000" font-family="sans-serif" font-size="13" lengthAdjust="spacing" textLength="227" x="240.25" y="618.5137">Identify Risks, Sensitivity, Tradeoffs</text><polygon fill="#181818" points="329,648.5664,319,652.5664,329,656.5664,325,652.5664" style="stroke:#181818;stroke-width:1.0;"/><line style="stroke:#181818;stroke-width:1.0;" x1="323" x2="628.5" y1="652.5664" y2="652.5664"/><text fill="#000000" font-family="sans-serif" font-size="13" lengthAdjust="spacing" textLength="245" x="351.25" y="647.8242">Request Technical Parameter Estimates</text><polygon fill="#181818" points="617.5,677.877,627.5,681.877,617.5,685.877,621.5,681.877" style="stroke:#181818;stroke-width:1.0;"/><line style="stroke:#181818;stroke-width:1.0;stroke-dasharray:2.0,2.0;" x1="313" x2="623.5" y1="681.877" y2="681.877"/><text fill="#000000" font-family="sans-serif" font-size="13" lengthAdjust="spacing" textLength="169" x="386.75" y="677.1348">Tech Specs / Clarifications</text><polygon fill="#181818" points="89,707.1875,79,711.1875,89,715.1875,85,711.1875" style="stroke:#181818;stroke-width:1.0;"/><line style="stroke:#181818;stroke-width:1.0;stroke-dasharray:2.0,2.0;" x1="83" x2="633.5" y1="711.1875" y2="711.1875"/><text fill="#000000" font-family="sans-serif" font-size="13" lengthAdjust="spacing" textLength="150" x="281.25" y="706.4453">Analysis Records (JSON)</text><!--SRC=[ZLHTRnen47pthrXHAMcbL24VhLGaAbq8L6b5Wu2sBtrnxfR3oc5VRGEXlxwxlZjpvACAFDctCvwTMTihNo0aEMglKaZcoHX-6Nk_ACnM27UlT2cjN873FslKAOxHEPbZKgXSGqeWjAqgYwuqsZLLLqWiYRLc2zwkiLLuPnucCikKpk6iAmGjeNDhqoKwRwKtjWDlHf_uBu1-X25ngfJQGsUuaSLQUcLq4Dq1wO2X0dN6l3LR-EY8P_XnT34QFUL92ACyfXK3hy3O32sSTvyMZwMcVcme7UUshhpe_ayUp56k0eBtQiZbCv31sdcpgjbvKTT-wEvxwlTXifGEuQm7KVdQ8WmVoB4qdDVl2pO2tdyE9JsuoJZLnQwD82L9MLeZsMp1o8tq62f4a9RK52oa1rFEdHJDTixZ2WQKBfsdoDhJQ_HI5Iw08W-ZmaxeutsKKkElqQLMbK7kjVGob6Pu21UL1CBU1knBwk7jrzdjztUYXQ_QE0PjQ65LlYGl5pLDUxx0xNJgQ0WYMUUtzWRgdE6eoemJX6_QR0lCSeGh2i2riZZlmG-l2kLtCBU8y0KrMlau2vgNNlC93m1x-wccSZ-tPbt23TyhJGAck56uXOartgIc22NyuncCtlwKXSgOPOxfKgkKS2EKJjs5aoBcqAHcDteTP0O_gcc5WLLUKVgnzB7Fl4S3AaHG4-CwiEHfHA7LroVKPgioUYcPLZ0ND73qE4chpAj2EIA7bU5-_s94kiDu3fkCHIzr6BLSagiKvSufH-TCbRk7nD4SkHLTphOaxgjrPxdIdS0CjIDT6_BWX4oG6Ph5eYMDKTNe15_YK3GNTpyJ4tvvaGOBXiwh5O4VtTqOQfo9IX9JmAn4YkCK1WMrlI12TjI9v-P2L4hszxTfVueflMpFMLPrSKnsq1EpAWjiyZg6nfwAYx-gWXERoGt2IF4jOJeYButruXy0]--></g></svg>